<svg xmlns="http://www.w3.org/2000/svg" width="106" height="24" fill="none" viewBox="0 0 106 24">
  <g clip-path="url(#a)">
    <path fill="#0C0F1F" d="M105.122 12.14h.874c.036-1.41-.159-2.625-.586-3.643-.428-1.018-1.058-1.8-1.892-2.346-.833-.546-1.84-.818-3.019-.818-1.18 0-2.147.26-2.992.78-.844.52-1.499 1.26-1.963 2.217-.465.958-.697 2.095-.697 3.41s.236 2.377.708 3.32c.472.943 1.133 1.675 1.985 2.195.852.52 1.86.78 3.025.78 1.166 0 2.196-.288 3.114-.864.918-.576 1.612-1.387 2.084-2.434l-1.515-.59c-.369.75-.872 1.324-1.51 1.72-.638.398-1.384.597-2.239.597-1.253 0-2.221-.418-2.903-1.253-.612-.75-.948-1.774-1.011-3.07h8.537Zm-7.526-4.044c.682-.84 1.665-1.26 2.947-1.26s2.155.398 2.793 1.193c.524.655.843 1.569.956 2.741h-7.675c.111-1.115.438-2.007.979-2.674ZM90.18 17.7l4.336-12.033h-1.671l-3.506 9.894-3.528-9.894h-1.648L88.498 17.7h1.682ZM82.504 5.667h-1.626v12.034h1.626V5.667Zm0-4.123h-1.626v1.839h1.626V1.544Zm-3.66 7.906a6.437 6.437 0 0 0-.498-1.549 4.653 4.653 0 0 0-.901-1.297 4.082 4.082 0 0 0-1.36-.902c-.535-.223-1.16-.335-1.875-.335-.974 0-1.836.216-2.588.646a4.306 4.306 0 0 0-1.427 1.326V1.656h-1.47V17.7h1.636v-6.418c0-.683.077-1.293.232-1.827.156-.535.382-.99.68-1.365a2.973 2.973 0 0 1 1.107-.863c.439-.201.946-.301 1.52-.301.627 0 1.16.115 1.6.345.438.23.795.555 1.072.975.276.42.477.91.602 1.47a8.46 8.46 0 0 1 .189 1.844v6.14h1.636v-6.618c0-.542-.051-1.086-.155-1.632ZM66.037 5.572c-.42.026-.837.111-1.25.257a3.206 3.206 0 0 0-1.084.63c-.25.192-.483.439-.697.74-.085.119-.16.242-.233.37V5.667h-1.46v12.034h1.626v-6.005c0-.475.033-.957.1-1.444.066-.486.2-.947.398-1.38a3 3 0 0 1 .896-1.12 2.71 2.71 0 0 1 1.427-.624c.516-.06.991-.034 1.426.078V5.668c-.347-.09-.73-.12-1.15-.094v-.002Zm-6.448 3.337a4.065 4.065 0 0 0-.287-1.17c-.318-.78-.858-1.376-1.62-1.788-.764-.413-1.691-.62-2.782-.62-1.32 0-2.393.298-3.218.892-.826.595-1.376 1.43-1.649 2.507l1.582.468c.228-.802.625-1.389 1.189-1.76.564-.371 1.255-.557 2.074-.557 1.187 0 2.02.286 2.5.858.441.528.67 1.318.685 2.369-.388.054-.814.11-1.277.166-.705.086-1.424.186-2.156.301-.734.116-1.403.247-2.008.396a5.307 5.307 0 0 0-1.576.68 3.267 3.267 0 0 0-1.073 1.142c-.262.464-.393 1.023-.393 1.676s.151 1.23.453 1.772c.302.542.758.976 1.366 1.303.609.327 1.362.49 2.262.49 1.194 0 2.22-.27 3.074-.813a4.566 4.566 0 0 0 1.471-1.51V17.7h1.45v-7.476a12.9 12.9 0 0 0-.067-1.314v-.001Zm-1.56 3.27c-.007.464-.055.89-.143 1.276a3.833 3.833 0 0 1-.675 1.621c-.347.48-.804.856-1.371 1.13-.568.276-1.232.413-1.991.413-.642 0-1.156-.108-1.543-.323-.387-.215-.668-.487-.841-.814a2.137 2.137 0 0 1-.26-1.014c0-.43.101-.79.304-1.08a2.28 2.28 0 0 1 .78-.697 4.67 4.67 0 0 1 .984-.406c.5-.134 1.063-.249 1.686-.345a50.362 50.362 0 0 1 1.902-.256c.421-.048.784-.053 1.166-.101-.002.173.005.366.001.597l.001-.001ZM48.44 7.071V5.667h-3.66V2.324h-1.616v3.343H40.61v1.404h2.554v6.273c0 .587.01 1.108.028 1.565.018.456.134.908.348 1.353.266.536.654.93 1.167 1.181.512.253 1.095.394 1.747.423a7.887 7.887 0 0 0 1.986-.167v-1.437c-.856.141-1.573.163-2.152.067-.579-.097-1-.394-1.266-.892a1.996 1.996 0 0 1-.227-.897c-.01-.338-.016-.76-.016-1.264V7.07h3.66l.002.001Zm-8.792 5.727c-.266-.423-.712-.791-1.338-1.103-.627-.312-1.49-.609-2.588-.892-.936-.237-1.657-.456-2.162-.657-.506-.2-.853-.414-1.045-.64a1.224 1.224 0 0 1-.287-.819c0-.572.265-1.03.797-1.376.53-.345 1.22-.507 2.068-.485.9.015 1.642.228 2.228.64.586.413.935.972 1.045 1.678l1.66-.301a3.458 3.458 0 0 0-.775-1.839c-.435-.527-1.008-.937-1.72-1.231-.71-.294-1.517-.44-2.416-.44-.9 0-1.689.143-2.368.429-.678.286-1.209.687-1.592 1.203-.384.517-.576 1.116-.576 1.8 0 .564.13 1.041.387 1.43.258.39.693.734 1.305 1.032.612.296 1.46.594 2.544.89 1.01.276 1.77.513 2.278.714.509.2.847.418 1.012.652.166.234.249.537.249.908 0 .662-.261 1.183-.785 1.566s-1.239.573-2.146.573c-.907 0-1.709-.202-2.339-.607-.63-.405-1.034-.949-1.21-1.632l-1.66.278c.207 1.085.761 1.932 1.665 2.54.903.61 2.055.914 3.456.914 1.401 0 2.62-.325 3.456-.974.837-.65 1.255-1.544 1.255-2.68 0-.624-.133-1.148-.398-1.571Zm-18.392-6.72L17.681 2.44A8.074 8.074 0 0 0 11.885 0c-2.19 0-4.201.848-5.742 2.388a.604.604 0 0 0-.174.123L2.394 6.147c-3.192 3.247-3.192 8.529 0 11.775l3.575 3.636A8.074 8.074 0 0 0 11.766 24a8.072 8.072 0 0 0 5.742-2.388.603.603 0 0 0 .174-.123l3.575-3.636c3.191-3.247 3.191-8.529 0-11.774v-.001ZM6.836 20.693 3.26 17.057c-2.722-2.77-2.722-7.275 0-10.044l.535-.546a8.455 8.455 0 0 0 .572 5.52c.401.852.94 1.626 1.6 2.298l3.576 3.636a3.096 3.096 0 0 0 2.221.936c.58 0 1.136-.159 1.62-.456.262-.145.505-.33.72-.549a3.226 3.226 0 0 0 0-4.502L10.53 9.714a1.985 1.985 0 0 1 0-2.77c.107-.11.224-.203.35-.282a1.887 1.887 0 0 1 2.239.351l3.574 3.637a7.106 7.106 0 0 1 1.365 1.959c1.273 2.711.724 5.96-1.365 8.085a6.868 6.868 0 0 1-4.929 2.077 6.868 6.868 0 0 1-4.929-2.077h.002Zm13.553-3.706-.535.545a8.455 8.455 0 0 0-.572-5.52 8.323 8.323 0 0 0-1.6-2.298l-3.576-3.636a3.093 3.093 0 0 0-2.22-.936c-.581 0-1.137.159-1.622.457a3.156 3.156 0 0 0-.72.548 3.226 3.226 0 0 0 0 4.502l3.575 3.636a1.985 1.985 0 0 1 0 2.771 1.942 1.942 0 0 1-.35.282 1.887 1.887 0 0 1-2.238-.351L6.955 13.35a7.104 7.104 0 0 1-1.364-1.959c-1.274-2.711-.725-5.96 1.364-8.085a6.867 6.867 0 0 1 4.93-2.077c1.861 0 3.611.738 4.929 2.077l3.575 3.636c2.722 2.77 2.722 7.275 0 10.045Z"/>
  </g>
  <defs>
    <clipPath id="a">
      <path fill="#fff" d="M0 0h106v24H0z"/>
    </clipPath>
  </defs>
</svg>
